{"title":"MotoGP.2014x16.Australia.Race.BTSportHD.720p","uid":11244305,"size":7195328118,"categoryP":"video","categoryS":"hd___tv_shows","magnet":"?xt=urn:btih:15fe552acf5ed1793f664848eb9534ae6d007854&amp;dn=MotoGP.2014x16.Australia.Race.BTSportHD.720p&amp;tr=udp%3A%2F%2Ftracker.openbittorrent.com%3A80&amp;tr=udp%3A%2F%2Fopen.demonii.com%3A1337&amp;tr=udp%3A%2F%2Ftracker.coppersurfer.tk%3A6969&amp;tr=udp%3A%2F%2Fexodus.desync.com%3A6969","seeders":3,"leechers":1,"uploader":"smcgill1969","files":-1,"time":1413713727,"description":"Live MotoGP: Live race day coverage of the Grand Prix of Australia from Phillip Island.  \n\n01.Race.Moto3.720p.mp4 [1h17m - 2.01GB]\n02.Race.Moto2.720p.mp4 [1h27m - 2.08GB] \n03.Race.MotoGP.720p.mp4 [1h43m - 2.51GB]\n\n~~~\nVideo\nID                                       : 1\nFormat                                   : AVC\nFormat/Info                              : Advanced Video Codec\nFormat profile                           : High@L3.1\nFormat settings, CABAC                   : Yes\nFormat settings, ReFrames                : 4 frames\nCodec ID                                 : avc1\nCodec ID/Info                            : Advanced Video Coding\nDuration                                 : 1h 43mn\nBit rate                                 : 3 207 Kbps\nWidth                                    : 1 280 pixels\nHeight                                   : 720 pixels\nDisplay aspect ratio                     : 16:9\nFrame rate mode                          : Constant\nFrame rate                               : 25.000 fps\nColor space                              : YUV\nChroma subsampling                       : 4:2:0\nBit depth                                : 8 bits\nScan type                                : Progressive\nBits/(Pixel*Frame)                       : 0.139\nStream size                              : 2.31 GiB (92%)\nWriting library                          : x264 core 130 r2273 b3065e6\nEncoding settings                        : cabac=1 / ref=1 / deblock=1:0:0 / analyse=0x3:0x113 / me=hex / subme=2 / psy=1 / psy_rd=1.00:0.00 / mixed_ref=0 / me_range=16 / chroma_me=1 / trellis=0 / 8x8dct=1 / cqm=0 / deadzone=21,11 / fast_pskip=1 / chroma_qp_offset=0 / threads=12 / lookahead_threads=4 / sliced_threads=0 / nr=0 / decimate=1 / interlaced=0 / bluray_compat=0 / constrained_intra=0 / bframes=3 / b_pyramid=2 / b_adapt=1 / b_bias=0 / direct=1 / weightb=1 / open_gop=0 / weightp=1 / keyint=250 / keyint_min=25 / scenecut=40 / intra_refresh=0 / rc_lookahead=10 / rc=crf / mbtree=1 / crf=20.0 / qcomp=0.60 / qpmin=0 / qpmax=69 / qpstep=4 / vbv_maxrate=17500 / vbv_bufsize=17500 / crf_max=0.0 / nal_hrd=none / ip_ratio=1.40 / aq=1:1.00\nEncoded date                             : UTC 2014-10-19 07:12:47\nTagged date                              : UTC 2014-10-19 07:39:42\nColor primaries                          : BT.709\nTransfer characteristics                 : BT.709\nMatrix coefficients                      : BT.709\n\nAudio\nID                                       : 2\nFormat                                   : AAC\nFormat/Info                              : Advanced Audio Codec\nFormat profile                           : LC\nCodec ID                                 : 40\nDuration                                 : 1h 43mn\nBit rate mode                            : Variable\nBit rate                                 : 265 Kbps\nMaximum bit rate                         : 393 Kbps\nChannel(s)                               : 2 channels\nChannel positions                        : Front: L R\nSampling rate                            : 48.0 KHz\nCompression mode                         : Lossy\nStream size                              : 198 MiB (8%)\nEncoded date                             : UTC 2014-10-19 07:12:47\nTagged date                              : UTC 2014-10-19 07:39:41","torrent":{"xt":"urn:btih:15fe552acf5ed1793f664848eb9534ae6d007854","amp;dn":"MotoGP.2014x16.Australia.Race.BTSportHD.720p","amp;tr":["udp%3A%2F%2Ftracker.openbittorrent.com%3A80","udp%3A%2F%2Fopen.demonii.com%3A1337","udp%3A%2F%2Ftracker.coppersurfer.tk%3A6969","udp%3A%2F%2Fexodus.desync.com%3A6969"],"infoHash":"15fe552acf5ed1793f664848eb9534ae6d007854","infoHashBuffer":{"type":"Buffer","data":[21,254,85,42,207,94,209,121,63,102,72,72,235,149,52,174,109,0,120,84]},"announce":[],"urlList":[]}}